<svg xmlns="http://www.w3.org/2000/svg" width="610" height="600" fill="none" viewBox="0 0 61 60"><g clip-path="url(#clip0_1032_7774)"><g filter="url(#filter0_ii_1032_7774)"><path fill="url(#paint0_linear_1032_7774)" d="M30.3743 5L30.6668 5.0175C31.2249 5.08331 31.7445 5.3352 32.1418 5.73253C32.5391 6.12986 32.791 6.64946 32.8568 7.2075L32.8743 7.5V17.5L32.8868 17.875C32.9763 19.0654 33.4887 20.1846 34.3315 21.0301C35.1742 21.8756 36.2917 22.3917 37.4818 22.485L37.8743 22.5H47.8743L48.1668 22.5175C48.7249 22.5833 49.2445 22.8352 49.6418 23.2325C50.0391 23.6299 50.291 24.1495 50.3568 24.7075L50.3743 25V47.5C50.3744 49.413 49.6435 51.2538 48.3311 52.6456C47.0187 54.0375 45.2241 54.8753 43.3143 54.9875L42.8743 55H17.8743C15.9613 55.0001 14.1205 54.2692 12.7287 52.9568C11.3368 51.6444 10.4991 49.8497 10.3868 47.94L10.3743 47.5V12.5C10.3742 10.587 11.1051 8.74621 12.4175 7.35435C13.7299 5.96248 15.5246 5.12473 17.4343 5.0125L17.8743 5H30.3743Z"/></g><path stroke="url(#paint1_linear_1032_7774)" stroke-opacity=".2" stroke-width=".75" d="M30.3685 5.375L30.6292 5.39062C31.042 5.44055 31.4297 5.61025 31.7454 5.87695L31.8763 5.99805C32.2123 6.33403 32.4254 6.7726 32.4827 7.24414L32.4993 7.5V17.5127L32.512 17.8877V17.8955L32.513 17.9033C32.6092 19.1829 33.1598 20.3861 34.0657 21.2949C34.9717 22.2038 36.1731 22.758 37.4525 22.8584L37.4603 22.8594H37.4671L37.8597 22.875H47.8685L48.1292 22.8906C48.6012 22.9477 49.04 23.1618 49.3763 23.498C49.7123 23.834 49.9254 24.2726 49.9827 24.7441L49.9993 25V47.5L49.9915 47.8398C49.9108 49.5343 49.2268 51.149 48.0579 52.3887C46.8139 53.7079 45.1137 54.503 43.304 54.6123L42.8636 54.625H17.8743L17.5345 54.6172C15.84 54.5364 14.2253 53.8525 12.9857 52.6836C11.6662 51.4393 10.8701 49.7388 10.761 47.9287L10.7493 47.4893V12.5L10.7571 12.1602C10.8325 10.5786 11.4331 9.0667 12.4632 7.86426L12.6907 7.61133C13.9348 6.29209 15.6349 5.49703 17.4446 5.3877L17.8851 5.375H30.3685Z"/><g filter="url(#filter1_di_1032_7774)"><path fill="#fff" fill-opacity=".19" d="M46.3743 49.6434L46.268 49.6434L46.1724 49.3777C46.1157 49.2361 46.0484 49.1263 45.9705 49.0484C45.8855 48.9705 45.7686 48.9067 45.6199 48.8571L39.3405 46.6684L39.3405 45.7652L45.6624 43.6084C45.8182 43.5517 45.9386 43.488 46.0236 43.4171C46.1016 43.3463 46.1689 43.2365 46.2255 43.0877L46.268 42.9602L46.3743 42.9602L46.3743 45.659L46.268 45.659L46.2149 45.4996C46.1582 45.3509 46.0803 45.2623 45.9811 45.234C45.8749 45.1986 45.7509 45.2021 45.6093 45.2446L44.0793 45.744L44.0793 48.1027L45.5774 48.6127C45.7332 48.6623 45.8572 48.68 45.9493 48.6659C46.0414 48.6446 46.1157 48.5596 46.1724 48.4109L46.268 48.1771L46.3743 48.1771L46.3743 49.6434ZM43.8668 48.0284L43.8668 45.8077L40.5624 46.8809L43.8668 48.0284ZM46.3743 42.9445L46.268 42.9445L46.183 42.732C46.1334 42.5903 46.0661 42.4982 45.9811 42.4557C45.8961 42.4061 45.7828 42.3813 45.6411 42.3813L40.0949 42.3813C39.9532 42.3813 39.8399 42.4026 39.7549 42.4451C39.6699 42.4876 39.6026 42.5832 39.553 42.732L39.468 42.9445L39.3618 42.9445L39.3618 40.2138L39.468 40.2138L39.553 40.4263C39.6026 40.568 39.6699 40.6636 39.7549 40.7132C39.8399 40.7557 39.9532 40.777 40.0949 40.777L45.6411 40.777C45.7828 40.777 45.8961 40.7557 45.9811 40.7132C46.0591 40.6636 46.1264 40.568 46.183 40.4263L46.268 40.2138L46.3743 40.2138L46.3743 42.9445Z" shape-rendering="crispEdges"/></g><path fill="url(#paint2_linear_1032_7774)" stroke="url(#paint3_linear_1032_7774)" stroke-width=".75" d="M49.4692 23.5176H38.3599C35.2538 23.5175 32.7356 20.9996 32.7349 17.8936L32.7319 6.78125L49.4692 23.5176Z"/><path fill="url(#paint4_linear_1032_7774)" d="M30.3743 42.9496C30.3743 46.9172 27.1527 50.1133 23.1536 50.1133C19.1544 50.1133 15.9329 46.9172 15.9329 42.9496C15.9329 39.8523 18.8276 35.1421 20.9512 31.5949C21.9439 29.9371 24.3632 29.9371 25.3559 31.5949C27.4795 35.1421 30.3743 39.8523 30.3743 42.9496Z" opacity=".5"/><path fill="url(#paint5_linear_1032_7774)" d="M23.4855 48.2126C25.5792 48.2126 27.4911 46.9946 28.3565 45.1092C28.5317 44.7276 28.3645 44.2765 27.9829 44.1013C27.6029 43.9258 27.151 44.0934 26.9754 44.4749C26.3571 45.8221 24.9871 46.6924 23.4855 46.6924C23.066 46.6924 22.7255 47.0329 22.7255 47.4525C22.7255 47.8721 23.066 48.2126 23.4855 48.2126ZM28.426 41.752C28.846 41.752 29.1861 42.0921 29.1861 42.512C29.1861 42.932 28.846 43.2721 28.426 43.2721C28.0061 43.2721 27.6659 42.932 27.6659 42.512C27.6659 42.0921 28.0061 41.752 28.426 41.752Z" opacity=".5"/></g><defs><filter id="filter0_ii_1032_7774" width="41.5" height="51.5" x="9.624" y="4.25" color-interpolation-filters="sRGB" filterUnits="userSpaceOnUse"><feFlood flood-opacity="0" result="BackgroundImageFix"/><feBlend in="SourceGraphic" in2="BackgroundImageFix" mode="normal" result="shape"/><feColorMatrix in="SourceAlpha" result="hardAlpha" type="matrix" values="0 0 0 0 0 0 0 0 0 0 0 0 0 0 0 0 0 0 127 0"/><feOffset dx="1.5" dy="1.5"/><feGaussianBlur stdDeviation=".375"/><feComposite in2="hardAlpha" k2="-1" k3="1" operator="arithmetic"/><feColorMatrix type="matrix" values="0 0 0 0 1 0 0 0 0 1 0 0 0 0 1 0 0 0 0.14 0"/><feBlend in2="shape" mode="normal" result="effect1_innerShadow_1032_7774"/><feColorMatrix in="SourceAlpha" result="hardAlpha" type="matrix" values="0 0 0 0 0 0 0 0 0 0 0 0 0 0 0 0 0 0 127 0"/><feOffset dx="-.75" dy="-.75"/><feGaussianBlur stdDeviation="1.5"/><feComposite in2="hardAlpha" k2="-1" k3="1" operator="arithmetic"/><feColorMatrix type="matrix" values="0 0 0 0 0 0 0 0 0 0 0 0 0 0 0 0 0 0 0.3 0"/><feBlend in2="effect1_innerShadow_1032_7774" mode="normal" result="effect2_innerShadow_1032_7774"/></filter><filter id="filter1_di_1032_7774" width="8.034" height="10.43" x="38.641" y="39.513" color-interpolation-filters="sRGB" filterUnits="userSpaceOnUse"><feFlood flood-opacity="0" result="BackgroundImageFix"/><feColorMatrix in="SourceAlpha" result="hardAlpha" type="matrix" values="0 0 0 0 0 0 0 0 0 0 0 0 0 0 0 0 0 0 127 0"/><feOffset dx="-.2" dy="-.2"/><feGaussianBlur stdDeviation=".25"/><feComposite in2="hardAlpha" operator="out"/><feColorMatrix type="matrix" values="0 0 0 0 0 0 0 0 0 0 0 0 0 0 0 0 0 0 0.05 0"/><feBlend in2="BackgroundImageFix" mode="normal" result="effect1_dropShadow_1032_7774"/><feBlend in="SourceGraphic" in2="effect1_dropShadow_1032_7774" mode="normal" result="shape"/><feColorMatrix in="SourceAlpha" result="hardAlpha" type="matrix" values="0 0 0 0 0 0 0 0 0 0 0 0 0 0 0 0 0 0 127 0"/><feOffset dx=".074" dy=".074"/><feGaussianBlur stdDeviation=".074"/><feComposite in2="hardAlpha" k2="-1" k3="1" operator="arithmetic"/><feColorMatrix type="matrix" values="0 0 0 0 0 0 0 0 0 0 0 0 0 0 0 0 0 0 0.29 0"/><feBlend in2="shape" mode="overlay" result="effect2_innerShadow_1032_7774"/></filter><linearGradient id="paint0_linear_1032_7774" x1="30.374" x2="30.374" y1="5" y2="55" gradientUnits="userSpaceOnUse"><stop stop-color="#E7B886"/><stop offset="1" stop-color="#DE8F6B"/></linearGradient><linearGradient id="paint1_linear_1032_7774" x1="30.374" x2="30.374" y1="5" y2="55" gradientUnits="userSpaceOnUse"><stop stop-color="#fff"/><stop offset="1" stop-color="#fff"/></linearGradient><linearGradient id="paint2_linear_1032_7774" x1="32.357" x2="44.789" y1="23.892" y2="11.811" gradientUnits="userSpaceOnUse"><stop stop-color="#CBCBCB"/><stop offset="1" stop-color="#D4B28E"/></linearGradient><linearGradient id="paint3_linear_1032_7774" x1="41.366" x2="32.357" y1="14.252" y2="23.892" gradientUnits="userSpaceOnUse"><stop offset=".146" stop-color="#fff" stop-opacity="0"/><stop offset="1" stop-color="#fff"/></linearGradient><linearGradient id="paint4_linear_1032_7774" x1="27.781" x2="14.225" y1="30.352" y2="45.398" gradientUnits="userSpaceOnUse"><stop stop-color="#fff" stop-opacity=".3"/><stop offset=".683" stop-color="#fff"/></linearGradient><linearGradient id="paint5_linear_1032_7774" x1="25.956" x2="25.956" y1="41.752" y2="48.213" gradientUnits="userSpaceOnUse"><stop stop-color="#fff" stop-opacity=".3"/><stop offset="1" stop-color="#fff"/></linearGradient><clipPath id="clip0_1032_7774"><rect width="60" height="60" fill="#fff" transform="translate(0.375)"/></clipPath></defs></svg>