<svg xmlns="http://www.w3.org/2000/svg" width="610" height="600" fill="none" viewBox="0 0 61 60"><g clip-path="url(#clip0_1032_7608)"><g filter="url(#filter0_ii_1032_7608)"><path fill="url(#paint0_linear_1032_7608)" d="M30.8743 5L31.1668 5.0175C31.7249 5.08331 32.2445 5.3352 32.6418 5.73253C33.0391 6.12986 33.291 6.64946 33.3568 7.2075L33.3743 7.5V17.5L33.3868 17.875C33.4763 19.0654 33.9887 20.1846 34.8315 21.0301C35.6742 21.8756 36.7917 22.3917 37.9818 22.485L38.3743 22.5H48.3743L48.6668 22.5175C49.2249 22.5833 49.7445 22.8352 50.1418 23.2325C50.5391 23.6299 50.791 24.1495 50.8568 24.7075L50.8743 25V47.5C50.8744 49.413 50.1435 51.2538 48.8311 52.6456C47.5187 54.0375 45.7241 54.8753 43.8143 54.9875L43.3743 55H18.3743C16.4613 55.0001 14.6205 54.2692 13.2287 52.9568C11.8368 51.6444 10.9991 49.8497 10.8868 47.94L10.8743 47.5V12.5C10.8742 10.587 11.6051 8.74621 12.9175 7.35435C14.2299 5.96248 16.0246 5.12473 17.9343 5.0125L18.3743 5H30.8743Z"/></g><path stroke="url(#paint1_linear_1032_7608)" stroke-opacity=".2" stroke-width=".75" d="M30.8685 5.375L31.1292 5.39062C31.542 5.44055 31.9297 5.61025 32.2454 5.87695L32.3763 5.99805C32.7123 6.33403 32.9254 6.7726 32.9827 7.24414L32.9993 7.5V17.5127L33.012 17.8877V17.8955L33.013 17.9033C33.1092 19.1829 33.6598 20.3861 34.5657 21.2949C35.4717 22.2038 36.6731 22.758 37.9525 22.8584L37.9603 22.8594H37.9671L38.3597 22.875H48.3685L48.6292 22.8906C49.1012 22.9477 49.54 23.1618 49.8763 23.498C50.2123 23.834 50.4254 24.2726 50.4827 24.7441L50.4993 25V47.5L50.4915 47.8398C50.4108 49.5343 49.7268 51.149 48.5579 52.3887C47.3139 53.7079 45.6137 54.503 43.804 54.6123L43.3636 54.625H18.3743L18.0345 54.6172C16.34 54.5364 14.7253 53.8525 13.4857 52.6836C12.1662 51.4393 11.3701 49.7388 11.261 47.9287L11.2493 47.4893V12.5L11.2571 12.1602C11.3325 10.5786 11.9331 9.0667 12.9632 7.86426L13.1907 7.61133C14.4348 6.29209 16.1349 5.49703 17.9446 5.3877L18.3851 5.375H30.8685Z"/><path fill="url(#paint2_linear_1032_7608)" stroke="url(#paint3_linear_1032_7608)" stroke-width=".75" d="M49.9692 23.5176H38.8599C35.7538 23.5175 33.2356 20.9996 33.2349 17.8936L33.2319 6.78125L49.9692 23.5176Z"/><g clip-path="url(#clip1_1032_7608)"><g opacity=".4"><rect width="10" height="3.154" x="14.518" y="25.92" fill="#fff" rx="1"/><rect width="10" height="3.154" x="25.518" y="25.92" fill="#fff" rx="1"/><rect width="10" height="3.154" x="36.518" y="25.92" fill="#fff" rx="1"/></g><g opacity=".3"><rect width="10" height="3.154" x="14.518" y="30.074" fill="#fff" rx="1"/><rect width="10" height="3.154" x="25.518" y="30.074" fill="#fff" rx="1"/><rect width="10" height="3.154" x="36.518" y="30.074" fill="#fff" rx="1"/></g><g opacity=".24"><rect width="10" height="3.154" x="14.518" y="34.228" fill="#fff" rx="1"/><rect width="10" height="3.154" x="25.518" y="34.228" fill="#fff" rx="1"/><rect width="10" height="3.154" x="36.518" y="34.228" fill="#fff" rx="1"/></g><g opacity=".2"><rect width="10" height="3.154" x="14.518" y="38.383" fill="#fff" rx="1"/><rect width="10" height="3.154" x="25.518" y="38.383" fill="#fff" rx="1"/><rect width="10" height="3.154" x="36.518" y="38.383" fill="#fff" rx="1"/></g><g opacity=".15"><rect width="10" height="3.154" x="14.518" y="42.537" fill="#fff" rx="1"/><rect width="10" height="3.154" x="25.518" y="42.537" fill="#fff" rx="1"/><rect width="10" height="3.154" x="36.518" y="42.537" fill="#fff" rx="1"/></g><g opacity=".05"><rect width="10" height="3.154" x="14.518" y="46.691" fill="#fff" rx="1"/><rect width="10" height="3.154" x="25.518" y="46.691" fill="#fff" rx="1"/><rect width="10" height="3.154" x="36.518" y="46.691" fill="#fff" rx="1"/></g><g opacity=".03"><rect width="10" height="3.154" x="14.518" y="50.846" fill="#fff" rx="1"/><rect width="10" height="3.154" x="25.518" y="50.846" fill="#fff" rx="1"/><rect width="10" height="3.154" x="36.518" y="50.846" fill="#fff" rx="1"/></g></g></g><defs><filter id="filter0_ii_1032_7608" width="41.5" height="51.5" x="10.124" y="4.25" color-interpolation-filters="sRGB" filterUnits="userSpaceOnUse"><feFlood flood-opacity="0" result="BackgroundImageFix"/><feBlend in="SourceGraphic" in2="BackgroundImageFix" mode="normal" result="shape"/><feColorMatrix in="SourceAlpha" result="hardAlpha" type="matrix" values="0 0 0 0 0 0 0 0 0 0 0 0 0 0 0 0 0 0 127 0"/><feOffset dx="1.5" dy="1.5"/><feGaussianBlur stdDeviation=".375"/><feComposite in2="hardAlpha" k2="-1" k3="1" operator="arithmetic"/><feColorMatrix type="matrix" values="0 0 0 0 1 0 0 0 0 1 0 0 0 0 1 0 0 0 0.44 0"/><feBlend in2="shape" mode="normal" result="effect1_innerShadow_1032_7608"/><feColorMatrix in="SourceAlpha" result="hardAlpha" type="matrix" values="0 0 0 0 0 0 0 0 0 0 0 0 0 0 0 0 0 0 127 0"/><feOffset dx="-.75" dy="-.75"/><feGaussianBlur stdDeviation="1.5"/><feComposite in2="hardAlpha" k2="-1" k3="1" operator="arithmetic"/><feColorMatrix type="matrix" values="0 0 0 0 0 0 0 0 0 0.548649 0 0 0 0 0.365766 0 0 0 1 0"/><feBlend in2="effect1_innerShadow_1032_7608" mode="normal" result="effect2_innerShadow_1032_7608"/></filter><linearGradient id="paint0_linear_1032_7608" x1="30.874" x2="30.874" y1="5" y2="55" gradientUnits="userSpaceOnUse"><stop stop-color="#D4F4E9"/><stop offset=".328" stop-color="#5ACEA7"/><stop offset="1" stop-color="#056D4A"/></linearGradient><linearGradient id="paint1_linear_1032_7608" x1="30.874" x2="30.874" y1="5" y2="55" gradientUnits="userSpaceOnUse"><stop stop-color="#fff"/><stop offset="1" stop-color="#fff"/></linearGradient><linearGradient id="paint2_linear_1032_7608" x1="32.857" x2="45.289" y1="23.892" y2="11.811" gradientUnits="userSpaceOnUse"><stop stop-color="#1FAD7D"/><stop offset="1" stop-color="#ABFFE2"/></linearGradient><linearGradient id="paint3_linear_1032_7608" x1="41.866" x2="32.857" y1="14.252" y2="23.892" gradientUnits="userSpaceOnUse"><stop offset=".146" stop-color="#fff" stop-opacity="0"/><stop offset="1" stop-color="#fff"/></linearGradient><clipPath id="clip0_1032_7608"><rect width="60" height="60" fill="#fff" transform="translate(0.875)"/></clipPath><clipPath id="clip1_1032_7608"><rect width="32" height="28.08" fill="#fff" transform="translate(14.5178 25.9199)"/></clipPath></defs></svg>