<svg xmlns="http://www.w3.org/2000/svg" width="610" height="600" fill="none" viewBox="0 0 61 60"><g clip-path="url(#clip0_1032_7645)"><g filter="url(#filter0_ii_1032_7645)"><path fill="url(#paint0_linear_1032_7645)" d="M30.1243 5L30.4168 5.0175C30.9749 5.08331 31.4945 5.3352 31.8918 5.73253C32.2891 6.12986 32.541 6.64946 32.6068 7.2075L32.6243 7.5V17.5L32.6368 17.875C32.7263 19.0654 33.2387 20.1846 34.0815 21.0301C34.9242 21.8756 36.0417 22.3917 37.2318 22.485L37.6243 22.5H47.6243L47.9168 22.5175C48.4749 22.5833 48.9945 22.8352 49.3918 23.2325C49.7891 23.6299 50.041 24.1495 50.1068 24.7075L50.1243 25V47.5C50.1244 49.413 49.3935 51.2538 48.0811 52.6456C46.7687 54.0375 44.9741 54.8753 43.0643 54.9875L42.6243 55H17.6243C15.7113 55.0001 13.8705 54.2692 12.4787 52.9568C11.0868 51.6444 10.2491 49.8497 10.1368 47.94L10.1243 47.5V12.5C10.1242 10.587 10.8551 8.74621 12.1675 7.35435C13.4799 5.96248 15.2746 5.12473 17.1843 5.0125L17.6243 5H30.1243Z"/></g><path stroke="url(#paint1_linear_1032_7645)" stroke-opacity=".2" stroke-width=".75" d="M30.1185 5.375L30.3792 5.39062C30.792 5.44055 31.1797 5.61025 31.4954 5.87695L31.6263 5.99805C31.9623 6.33403 32.1754 6.7726 32.2327 7.24414L32.2493 7.5V17.5127L32.262 17.8877V17.8955L32.263 17.9033C32.3592 19.1829 32.9098 20.3861 33.8157 21.2949C34.7217 22.2038 35.9231 22.758 37.2025 22.8584L37.2103 22.8594H37.2171L37.6097 22.875H47.6185L47.8792 22.8906C48.3512 22.9477 48.79 23.1618 49.1263 23.498C49.4623 23.834 49.6754 24.2726 49.7327 24.7441L49.7493 25V47.5L49.7415 47.8398C49.6608 49.5343 48.9768 51.149 47.8079 52.3887C46.5639 53.7079 44.8637 54.503 43.054 54.6123L42.6136 54.625H17.6243L17.2845 54.6172C15.59 54.5364 13.9753 53.8525 12.7357 52.6836C11.4162 51.4393 10.6201 49.7388 10.511 47.9287L10.4993 47.4893V12.5L10.5071 12.1602C10.5825 10.5786 11.1831 9.0667 12.2132 7.86426L12.4407 7.61133C13.6848 6.29209 15.3849 5.49703 17.1946 5.3877L17.6351 5.375H30.1185Z"/><path fill="url(#paint2_linear_1032_7645)" stroke="url(#paint3_linear_1032_7645)" stroke-width=".75" d="M49.2192 23.5176H38.1099C35.0038 23.5175 32.4856 20.9996 32.4849 17.8936L32.4819 6.78125L49.2192 23.5176Z"/><g clip-path="url(#clip1_1032_7645)" opacity=".5"><rect width="4" height="4.184" x="9.482" y="46.842" fill="#fff" opacity=".3" rx="1" transform="rotate(-90 9.48242 46.8418)"/><rect width="4" height="4.184" x="15.666" y="46.842" fill="#fff" opacity=".6" rx="1" transform="rotate(-90 15.666 46.8418)"/><rect width="4" height="4.184" x="21.85" y="46.842" fill="#fff" opacity=".8" rx="1" transform="rotate(-90 21.8496 46.8418)"/><rect width="4" height="4.184" x="28.033" y="46.842" fill="#fff" rx="1" transform="rotate(-90 28.0332 46.8418)"/><rect width="4" height="4.184" x="34.217" y="46.842" fill="#fff" opacity=".8" rx="1" transform="rotate(-90 34.2168 46.8418)"/><rect width="4" height="4.184" x="40.4" y="46.842" fill="#fff" opacity=".6" rx="1" transform="rotate(-90 40.4004 46.8418)"/><rect width="4" height="4.184" x="46.584" y="46.842" fill="#fff" opacity=".3" rx="1" transform="rotate(-90 46.584 46.8418)"/></g><path fill="url(#paint4_linear_1032_7645)" d="M17.874 28.2012C17.874 27.6489 17.4263 27.2012 16.874 27.2012H11.125V39.5322H16.874C17.4263 39.5322 17.874 39.0845 17.874 38.5322V28.2012Z" opacity=".6"/><rect width="22.849" height="14.733" x="18.874" y="26" fill="url(#paint5_linear_1032_7645)" rx="1"/><path fill="url(#paint6_linear_1032_7645)" d="M42.7231 28.2012C42.7231 27.6489 43.1709 27.2012 43.7231 27.2012H49.4722V39.5322H43.7231C43.1709 39.5322 42.7231 39.0845 42.7231 38.5322V28.2012Z" opacity=".6"/></g><defs><filter id="filter0_ii_1032_7645" width="41.5" height="51.5" x="9.374" y="4.25" color-interpolation-filters="sRGB" filterUnits="userSpaceOnUse"><feFlood flood-opacity="0" result="BackgroundImageFix"/><feBlend in="SourceGraphic" in2="BackgroundImageFix" mode="normal" result="shape"/><feColorMatrix in="SourceAlpha" result="hardAlpha" type="matrix" values="0 0 0 0 0 0 0 0 0 0 0 0 0 0 0 0 0 0 127 0"/><feOffset dx="1.5" dy="1.5"/><feGaussianBlur stdDeviation=".375"/><feComposite in2="hardAlpha" k2="-1" k3="1" operator="arithmetic"/><feColorMatrix type="matrix" values="0 0 0 0 1 0 0 0 0 1 0 0 0 0 1 0 0 0 0.44 0"/><feBlend in2="shape" mode="normal" result="effect1_innerShadow_1032_7645"/><feColorMatrix in="SourceAlpha" result="hardAlpha" type="matrix" values="0 0 0 0 0 0 0 0 0 0 0 0 0 0 0 0 0 0 127 0"/><feOffset dx="-.75" dy="-.75"/><feGaussianBlur stdDeviation="1.5"/><feComposite in2="hardAlpha" k2="-1" k3="1" operator="arithmetic"/><feColorMatrix type="matrix" values="0 0 0 0 0.548649 0 0 0 0 0.182883 0 0 0 0 0 0 0 0 1 0"/><feBlend in2="effect1_innerShadow_1032_7645" mode="normal" result="effect2_innerShadow_1032_7645"/></filter><linearGradient id="paint0_linear_1032_7645" x1="30.124" x2="30.124" y1="5" y2="55" gradientUnits="userSpaceOnUse"><stop stop-color="#FFB794"/><stop offset=".328" stop-color="#D4928A"/><stop offset="1" stop-color="#CE675A"/></linearGradient><linearGradient id="paint1_linear_1032_7645" x1="30.124" x2="30.124" y1="5" y2="55" gradientUnits="userSpaceOnUse"><stop stop-color="#fff"/><stop offset="1" stop-color="#fff"/></linearGradient><linearGradient id="paint2_linear_1032_7645" x1="32.107" x2="44.539" y1="23.892" y2="11.811" gradientUnits="userSpaceOnUse"><stop stop-color="#BC4333"/><stop offset="1" stop-color="#FFB794"/></linearGradient><linearGradient id="paint3_linear_1032_7645" x1="41.116" x2="32.107" y1="14.252" y2="23.892" gradientUnits="userSpaceOnUse"><stop offset=".146" stop-color="#fff" stop-opacity="0"/><stop offset="1" stop-color="#fff"/></linearGradient><linearGradient id="paint4_linear_1032_7645" x1="11.125" x2="17.874" y1="33.367" y2="33.367" gradientUnits="userSpaceOnUse"><stop stop-color="#fff" stop-opacity="0"/><stop offset="1" stop-color="#fff"/></linearGradient><linearGradient id="paint5_linear_1032_7645" x1="30.299" x2="30.299" y1="26" y2="40.733" gradientUnits="userSpaceOnUse"><stop stop-color="#fff"/><stop offset="1" stop-color="#fff" stop-opacity=".3"/></linearGradient><linearGradient id="paint6_linear_1032_7645" x1="49.472" x2="42.723" y1="33.367" y2="33.367" gradientUnits="userSpaceOnUse"><stop stop-color="#fff" stop-opacity="0"/><stop offset="1" stop-color="#fff"/></linearGradient><clipPath id="clip0_1032_7645"><rect width="60" height="60" fill="#fff" transform="translate(0.125)"/></clipPath><clipPath id="clip1_1032_7645"><rect width="4" height="38" fill="#fff" transform="matrix(0 -1 1 0 11.125 46.8418)"/></clipPath></defs></svg>